<?xml version="1.0" encoding="UTF-8"?><svg id="a" xmlns="http://www.w3.org/2000/svg" viewBox="0 0 72 46"><defs><style>.b{fill:#fff;}</style></defs><g><rect class="b" x="0" y="0" width="72" height="20" rx="10" ry="10"/><path d="M62,1c4.96,0,9,4.04,9,9s-4.04,9-9,9H10C5.04,19,1,14.96,1,10S5.04,1,10,1H62m0-1H10C4.5,0,0,4.5,0,10H0C0,15.5,4.5,20,10,20H62c5.5,0,10-4.5,10-10h0c0-5.5-4.5-10-10-10h0Z"/></g><g><rect class="b" x="1" y="25" width="71" height="21" rx="10.5" ry="10.5"/><path d="M61.5,26c5.24,0,9.5,4.26,9.5,9.5s-4.26,9.5-9.5,9.5H11.5c-5.24,0-9.5-4.26-9.5-9.5s4.26-9.5,9.5-9.5H61.5m0-1H11.5c-5.77,0-10.5,4.72-10.5,10.5h0c0,5.78,4.73,10.5,10.5,10.5H61.5c5.77,0,10.5-4.72,10.5-10.5h0c0-5.78-4.72-10.5-10.5-10.5h0Z"/></g></svg>